{
    "asset" : {
        "generator" : "Khronos glTF Blender I/O v1.8.19",
        "version" : "2.0"
    },
    "scene" : 0,
    "scenes" : [
        {
            "name" : "Scene",
            "nodes" : [
                0
            ]
        }
    ],
    "nodes" : [
        {
            "mesh" : 0,
            "name" : "Circle002",
            "rotation" : [
                0,
                0.7071068286895752,
                0,
                0.7071068286895752
            ],
            "scale" : [
                0.009999999776482582,
                0.009999999776482582,
                0.009999999776482582
            ],
            "translation" : [
                -0.18664562702178955,
                -0.06083109229803085,
                -0.08590233325958252
            ]
        }
    ],
    "materials" : [
        {
            "doubleSided" : true,
            "name" : "rojo",
            "pbrMetallicRoughness" : {
                "baseColorFactor" : [
                    0.2843587398529053,
                    0,
                    0.0007944292738102376,
                    1
                ],
                "metallicFactor" : 0,
                "roughnessFactor" : 0.03333333134651184
            }
        },
        {
            "doubleSided" : true,
            "name" : "negro",
            "pbrMetallicRoughness" : {
                "baseColorFactor" : [
                    0,
                    0,
                    0,
                    1
                ],
                "metallicFactor" : 0,
                "roughnessFactor" : 0.0727272629737854
            }
        }
    ],
    "meshes" : [
        {
            "name" : "Mesh.002",
            "primitives" : [
                {
                    "attributes" : {
                        "POSITION" : 0,
                        "NORMAL" : 1,
                        "TEXCOORD_0" : 2
                    },
                    "indices" : 3,
                    "material" : 0
                },
                {
                    "attributes" : {
                        "POSITION" : 4,
                        "NORMAL" : 5,
                        "TEXCOORD_0" : 6
                    },
                    "indices" : 7,
                    "material" : 1
                }
            ]
        }
    ],
    "accessors" : [
        {
            "bufferView" : 0,
            "componentType" : 5126,
            "count" : 828,
            "max" : [
                32.577938079833984,
                96.78068542480469,
                4.820072174072266
            ],
            "min" : [
                -32.68626403808594,
                6.9549431800842285,
                -6.220458507537842
            ],
            "type" : "VEC3"
        },
        {
            "bufferView" : 1,
            "componentType" : 5126,
            "count" : 828,
            "type" : "VEC3"
        },
        {
            "bufferView" : 2,
            "componentType" : 5126,
            "count" : 828,
            "type" : "VEC2"
        },
        {
            "bufferView" : 3,
            "componentType" : 5123,
            "count" : 3720,
            "type" : "SCALAR"
        },
        {
            "bufferView" : 4,
            "componentType" : 5126,
            "count" : 2764,
            "max" : [
                46.35181427001953,
                2.3112001419067383,
                46.35181427001953
            ],
            "min" : [
                -46.35181427001953,
                -2.3112001419067383,
                -46.35181427001953
            ],
            "type" : "VEC3"
        },
        {
            "bufferView" : 5,
            "componentType" : 5126,
            "count" : 2764,
            "type" : "VEC3"
        },
        {
            "bufferView" : 6,
            "componentType" : 5126,
            "count" : 2764,
            "type" : "VEC2"
        },
        {
            "bufferView" : 7,
            "componentType" : 5123,
            "count" : 13440,
            "type" : "SCALAR"
        }
    ],
    "bufferViews" : [
        {
            "buffer" : 0,
            "byteLength" : 9936,
            "byteOffset" : 0
        },
        {
            "buffer" : 0,
            "byteLength" : 9936,
            "byteOffset" : 9936
        },
        {
            "buffer" : 0,
            "byteLength" : 6624,
            "byteOffset" : 19872
        },
        {
            "buffer" : 0,
            "byteLength" : 7440,
            "byteOffset" : 26496
        },
        {
            "buffer" : 0,
            "byteLength" : 33168,
            "byteOffset" : 33936
        },
        {
            "buffer" : 0,
            "byteLength" : 33168,
            "byteOffset" : 67104
        },
        {
            "buffer" : 0,
            "byteLength" : 22112,
            "byteOffset" : 100272
        },
        {
            "buffer" : 0,
            "byteLength" : 26880,
            "byteOffset" : 122384
        }
    ],
    "buffers" : [
        {
            "byteLength" : 149264,
            "uri" : "data:application/octet-stream;base64,"
        }
    ]
}
