{
    "asset" : {
        "generator" : "Khronos glTF Blender I/O v1.8.19",
        "version" : "2.0"
    },
    "extensionsUsed" : [
        "KHR_materials_unlit"
    ],
    "scene" : 0,
    "scenes" : [
        {
            "name" : "Scene",
            "nodes" : [
                0,
                1
            ]
        }
    ],
    "nodes" : [
        {
            "mesh" : 0,
            "name" : "TextPlus001",
            "rotation" : [
                0.5,
                0.4999999701976776,
                -0.5000000596046448,
                0.4999999403953552
            ],
            "scale" : [
                0.0419580340385437,
                0.0419580340385437,
                0.0419580340385437
            ],
            "translation" : [
                0.0419580340385437,
                0.8122515082359314,
                -0.4557444155216217
            ]
        },
        {
            "mesh" : 1,
            "name" : "TextPlus001.003",
            "rotation" : [
                0.5,
                0.4999999701976776,
                -0.5000000596046448,
                0.4999999403953552
            ],
            "scale" : [
                0.0419580340385437,
                0.0419580340385437,
                0.0419580340385437
            ],
            "translation" : [
                0.04195769503712654,
                -1.01056969165802,
                -0.5492130517959595
            ]
        }
    ],
    "materials" : [
        {
            "doubleSided" : true,
            "extensions" : {
                "KHR_materials_unlit" : {}
            },
            "name" : "Mat1.001",
            "pbrMetallicRoughness" : {
                "baseColorTexture" : {
                    "index" : 0
                },
                "metallicFactor" : 0,
                "roughnessFactor" : 0.9
            }
        }
    ],
    "meshes" : [
        {
            "name" : "Mesh",
            "primitives" : [
                {
                    "attributes" : {
                        "POSITION" : 0,
                        "NORMAL" : 1,
                        "TEXCOORD_0" : 2
                    },
                    "indices" : 3,
                    "material" : 0
                }
            ]
        },
        {
            "name" : "Mesh.003",
            "primitives" : [
                {
                    "attributes" : {
                        "POSITION" : 4,
                        "NORMAL" : 5,
                        "TEXCOORD_0" : 6
                    },
                    "indices" : 7,
                    "material" : 0
                }
            ]
        }
    ],
    "textures" : [
        {
            "sampler" : 0,
            "source" : 0
        }
    ],
    "images" : [
        {
            "bufferView" : 4,
            "mimeType" : "image/png",
            "name" : "bakeGoldNombres"
        }
    ],
    "accessors" : [
        {
            "bufferView" : 0,
            "componentType" : 5126,
            "count" : 9337,
            "max" : [
                19.311080932617188,
                1.0000009536743164,
                7.853298664093018
            ],
            "min" : [
                -15.277725219726562,
                -0.9999991059303284,
                -8.101089477539062
            ],
            "type" : "VEC3"
        },
        {
            "bufferView" : 1,
            "componentType" : 5126,
            "count" : 9337,
            "type" : "VEC3"
        },
        {
            "bufferView" : 2,
            "componentType" : 5126,
            "count" : 9337,
            "type" : "VEC2"
        },
        {
            "bufferView" : 3,
            "componentType" : 5123,
            "count" : 15816,
            "type" : "SCALAR"
        },
        {
            "bufferView" : 5,
            "componentType" : 5126,
            "count" : 19294,
            "max" : [
                44.01325607299805,
                1.0000035762786865,
                4.384124755859375
            ],
            "min" : [
                -37.145545959472656,
                -0.999996542930603,
                -9.912185668945312
            ],
            "type" : "VEC3"
        },
        {
            "bufferView" : 6,
            "componentType" : 5126,
            "count" : 19294,
            "type" : "VEC3"
        },
        {
            "bufferView" : 7,
            "componentType" : 5126,
            "count" : 19294,
            "type" : "VEC2"
        },
        {
            "bufferView" : 8,
            "componentType" : 5123,
            "count" : 32028,
            "type" : "SCALAR"
        }
    ],
    "bufferViews" : [
        {
            "buffer" : 0,
            "byteLength" : 112044,
            "byteOffset" : 0
        },
        {
            "buffer" : 0,
            "byteLength" : 112044,
            "byteOffset" : 112044
        },
        {
            "buffer" : 0,
            "byteLength" : 74696,
            "byteOffset" : 224088
        },
        {
            "buffer" : 0,
            "byteLength" : 31632,
            "byteOffset" : 298784
        },
        {
            "buffer" : 0,
            "byteLength" : 1208527,
            "byteOffset" : 330416
        },
        {
            "buffer" : 0,
            "byteLength" : 231528,
            "byteOffset" : 1538944
        },
        {
            "buffer" : 0,
            "byteLength" : 231528,
            "byteOffset" : 1770472
        },
        {
            "buffer" : 0,
            "byteLength" : 154352,
            "byteOffset" : 2002000
        },
        {
            "buffer" : 0,
            "byteLength" : 64056,
            "byteOffset" : 2156352
        }
    ],
    "samplers" : [
        {
            "magFilter" : 9729,
            "minFilter" : 9987
        }
    ],
    "buffers" : [
        {
            "byteLength" : 2220408,
            "uri" : "data:application/octet-stream;base64,"
        }
    ]
}
