{
  "accessors": [
    {
      "bufferView": 2,
      "componentType": 5126,
      "count": 2710,
      "max": [
        1.0707387924194336,
        0.22574324905872345,
        1.0773671865463257
      ],
      "min": [
        -1.0707387924194336,
        -0.2265235334634781,
        -1.3098641633987427
      ],
      "type": "VEC3"
    },
    {
      "bufferView": 2,
      "byteOffset": 32520,
      "componentType": 5126,
      "count": 2710,
      "max": [
        1.0,
        0.9999567270278931,
        1.0
      ],
      "min": [
        -1.0,
        -0.9998379945755005,
        -0.9999991655349731
      ],
      "type": "VEC3"
    },
    {
      "bufferView": 1,
      "componentType": 5126,
      "count": 2710,
      "max": [
        1.0000003576278687,
        1.0
      ],
      "min": [
        0.0,
        0.0
      ],
      "type": "VEC2"
    },
    {
      "bufferView": 0,
      "componentType": 5125,
      "count": 12348,
      "type": "SCALAR"
    },
    {
      "bufferView": 2,
      "byteOffset": 65040,
      "componentType": 5126,
      "count": 272,
      "max": [
        1.0,
        0.3580000102519989,
        1.0
      ],
      "min": [
        -1.0,
        -0.9171180725097656,
        -1.0
      ],
      "type": "VEC3"
    },
    {
      "bufferView": 2,
      "byteOffset": 68304,
      "componentType": 5126,
      "count": 272,
      "max": [
        0.9807853698730469,
        1.0,
        0.9807853698730469
      ],
      "min": [
        -0.9807853698730469,
        -1.0,
        -0.9807853698730469
      ],
      "type": "VEC3"
    },
    {
      "bufferView": 0,
      "byteOffset": 49392,
      "componentType": 5125,
      "count": 372,
      "type": "SCALAR"
    },
    {
      "bufferView": 3,
      "componentType": 5126,
      "count": 241,
      "max": [
        10.0
      ],
      "min": [
        0.0
      ],
      "type": "SCALAR"
    },
    {
      "bufferView": 5,
      "componentType": 5126,
      "count": 241,
      "max": [
        0.7071068286895752,
        0.7070839405059814,
        0.7068244814872742,
        0.7071067094802856
      ],
      "min": [
        -0.005901510361582041,
        -0.7068243026733398,
        -0.7070840001106262,
        -0.005901510361582041
      ],
      "type": "VEC4"
    },
    {
      "bufferView": 3,
      "byteOffset": 964,
      "componentType": 5126,
      "count": 3,
      "max": [
        10.0
      ],
      "min": [
        0.0
      ],
      "type": "SCALAR"
    },
    {
      "bufferView": 4,
      "componentType": 5126,
      "count": 3,
      "max": [
        1.0,
        1.0,
        1.0
      ],
      "min": [
        0.9999999403953552,
        0.9999999403953552,
        1.0
      ],
      "type": "VEC3"
    },
    {
      "bufferView": 3,
      "byteOffset": 976,
      "componentType": 5126,
      "count": 241,
      "max": [
        10.0
      ],
      "min": [
        0.0
      ],
      "type": "SCALAR"
    },
    {
      "bufferView": 4,
      "byteOffset": 36,
      "componentType": 5126,
      "count": 241,
      "max": [
        0.0008159858407452703,
        1.451694369316101,
        0.0008157872362062335
      ],
      "min": [
        -0.0008159182034432888,
        1.451694369316101,
        -0.0008160261786542833
      ],
      "type": "VEC3"
    },
    {
      "bufferView": 3,
      "byteOffset": 1940,
      "componentType": 5126,
      "count": 241,
      "max": [
        10.0
      ],
      "min": [
        0.0
      ],
      "type": "SCALAR"
    },
    {
      "bufferView": 5,
      "byteOffset": 3856,
      "componentType": 5126,
      "count": 241,
      "max": [
        1.1620294764314715e-27,
        0.9999829530715942,
        2.11758312544222e-22,
        1.0
      ],
      "min": [
        -5.667683455276117e-28,
        -0.9996005296707153,
        -0.0,
        0.005855927709490061
      ],
      "type": "VEC4"
    }
  ],
  "animations": [
    {
      "channels": [
        {
          "sampler": 0,
          "target": {
            "node": 3,
            "path": "rotation"
          }
        },
        {
          "sampler": 1,
          "target": {
            "node": 3,
            "path": "scale"
          }
        },
        {
          "sampler": 2,
          "target": {
            "node": 5,
            "path": "translation"
          }
        },
        {
          "sampler": 3,
          "target": {
            "node": 5,
            "path": "rotation"
          }
        }
      ],
      "name": "Animation",
      "samplers": [
        {
          "input": 7,
          "interpolation": "LINEAR",
          "output": 8
        },
        {
          "input": 9,
          "interpolation": "LINEAR",
          "output": 10
        },
        {
          "input": 11,
          "interpolation": "LINEAR",
          "output": 12
        },
        {
          "input": 13,
          "interpolation": "LINEAR",
          "output": 14
        }
      ]
    }
  ],
  "asset": {
    "extras": {
      "author": "dynastro (https://sketchfab.com/dynastro)",
      "license": "CC-BY-4.0 (http://creativecommons.org/licenses/by/4.0/)",
      "source": "https://sketchfab.com/3d-models/the-ring-315bb70e695c46d3903bf57a6b8c5cf0",
      "title": "The Ring"
    },
    "generator": "Sketchfab-12.68.0",
    "version": "2.0"
  },
  "bufferViews": [
    {
      "buffer": 0,
      "byteLength": 50880,
      "name": "floatBufferViews",
      "target": 34963
    },
    {
      "buffer": 0,
      "byteLength": 21680,
      "byteOffset": 50880,
      "byteStride": 8,
      "name": "floatBufferViews",
      "target": 34962
    },
    {
      "buffer": 0,
      "byteLength": 71568,
      "byteOffset": 72560,
      "byteStride": 12,
      "name": "floatBufferViews",
      "target": 34962
    },
    {
      "buffer": 0,
      "byteLength": 2904,
      "byteOffset": 144128,
      "name": "floatBufferViews"
    },
    {
      "buffer": 0,
      "byteLength": 2928,
      "byteOffset": 147032,
      "byteStride": 12,
      "name": "floatBufferViews"
    },
    {
      "buffer": 0,
      "byteLength": 7712,
      "byteOffset": 149960,
      "byteStride": 16,
      "name": "floatBufferViews"
    }
  ],
  "buffers": [
    {
      "byteLength": 157672,
      "uri": "scene.bin"
    }
  ],
  "extensionsUsed": [
    "KHR_materials_clearcoat",
    "KHR_materials_transmission"
  ],
  "materials": [
    {
      "doubleSided": true,
      "extensions": {
        "KHR_materials_clearcoat": {
          "clearcoatFactor": 0.36147103658536583,
          "clearcoatRoughnessFactor": 0.04
        }
      },
      "name": "holder",
      "pbrMetallicRoughness": {
        "baseColorFactor": [
          0.7060261643551403,
          0.5429290518190779,
          0.0427655574872298,
          1.0
        ],
        "metallicFactor": 0.9163490853658537,
        "roughnessFactor": 0.0
      }
    },
    {
      "alphaMode": "BLEND",
      "doubleSided": true,
      "extensions": {
        "KHR_materials_transmission": {
          "transmissionFactor": 0.7848704268292683
        }
      },
      "name": "crystal",
      "pbrMetallicRoughness": {
        "baseColorFactor": [
          0.8,
          0.8,
          0.8,
          0.25
        ],
        "metallicFactor": 0.4651295731707317,
        "roughnessFactor": 0.152778
      }
    }
  ],
  "meshes": [
    {
      "name": "Object_0",
      "primitives": [
        {
          "attributes": {
            "NORMAL": 1,
            "POSITION": 0,
            "TEXCOORD_0": 2
          },
          "indices": 3,
          "material": 0,
          "mode": 4
        }
      ]
    },
    {
      "name": "Object_1",
      "primitives": [
        {
          "attributes": {
            "NORMAL": 5,
            "POSITION": 4
          },
          "indices": 6,
          "material": 1,
          "mode": 4
        }
      ]
    }
  ],
  "nodes": [
    {
      "children": [
        1
      ],
      "matrix": [
        1.0,
        0.0,
        0.0,
        0.0,
        0.0,
        2.220446049250313e-16,
        -1.0,
        0.0,
        0.0,
        1.0,
        2.220446049250313e-16,
        0.0,
        0.0,
        0.0,
        0.0,
        1.0
      ],
      "name": "Sketchfab_model"
    },
    {
      "children": [
        2
      ],
      "name": "root"
    },
    {
      "children": [
        3,
        5
      ],
      "matrix": [
        1.0,
        0.0,
        0.0,
        0.0,
        0.0,
        2.220446049250313e-16,
        1.0,
        0.0,
        0.0,
        -1.0,
        2.220446049250313e-16,
        0.0,
        0.0,
        0.0,
        0.0,
        1.0
      ],
      "name": "GLTF_SceneRootNode"
    },
    {
      "children": [
        4
      ],
      "name": "Torus_0",
      "rotation": [
        0.7071068286895752,
        0.0,
        0.0,
        0.7071068286895752
      ]
    },
    {
      "mesh": 0,
      "name": "Object_4"
    },
    {
      "children": [
        6
      ],
      "name": "dobj.001_1",
      "scale": [
        0.32631799578666687,
        0.32631799578666687,
        0.32631799578666687
      ],
      "translation": [
        -0.0005871382309123874,
        1.451694369316101,
        -0.0005667327204719186
      ]
    },
    {
      "mesh": 1,
      "name": "Object_6"
    }
  ],
  "scene": 0,
  "scenes": [
    {
      "name": "Sketchfab_Scene",
      "nodes": [
        0
      ]
    }
  ]
}
